{"title":"CHVRCHES at Coachella Apr-19-2014 720p","uid":10558669,"size":535615094,"categoryP":"video","categoryS":"music_videos","magnet":"?xt=urn:btih:6cd48b84b5214a2138ad161ea4024fe733ea7431&amp;dn=CHVRCHES+at+Coachella+Apr-19-2014+720p&amp;tr=udp%3A%2F%2Ftracker.openbittorrent.com%3A80&amp;tr=udp%3A%2F%2Fopen.demonii.com%3A1337&amp;tr=udp%3A%2F%2Ftracker.coppersurfer.tk%3A6969&amp;tr=udp%3A%2F%2Fexodus.desync.com%3A6969","seeders":1,"leechers":0,"uploader":"doragon69","files":2,"time":1405385273,"description":"CHVRCHES at Coachella weekend two, day two.\n\nMediaPlayerClassic thumbnails: &lt;a href=&quot;\nhttp://image.bayimg.com/262be2477f7f489c7fa5200a03ee3185a5af5eb0.jpg&quot; rel=&quot;nofollow&quot; target=&quot;_NEW&quot;&gt;\nhttp://image.bayimg.com/262be2477f7f489c7fa5200a03ee3185a5af5eb0.jpg&lt;/a&gt;\n\nVideo: MPEG4 Video (H264) 1280x720 23.976fps 2860kbps\nAudio: Dolby AC3 48000Hz 6ch 384kbps\n\nSetlist (shown):\nWe Sink\nRecover\nTether\nUnder the Tide\nThe Mother We Share\n\nVideo\nID : 1\nFormat : AVC\nFormat/Info : Advanced Video Codec\nFormat profile : &lt;a class=&quot;__cf_email__&quot; href=&quot;/cdn-cgi/l/email-protection&quot; data-cfemail=&quot;642c0d030c2428504a55&quot;&gt;[email&amp;#160;protected]&lt;/a&gt;&lt;script cf-hash='f9e31' type=&quot;text/javascript&quot;&gt;\n/* &lt;![CDATA[ */!function(){try{var t=&quot;currentScript&quot;in document?document.currentScript:function(){for(var t=document.getElementsByTagName(&quot;script&quot;),e=t.length;e--;)if(t[e].getAttribute(&quot;cf-hash&quot;))return t[e]}();if(t&amp;&amp;t.previousSibling){var e,r,n,i,c=t.previousSibling,a=c.getAttribute(&quot;data-cfemail&quot;);if(a){for(e=&quot;&quot;,r=parseInt(a.substr(0,2),16),n=2;a.length-n;n+=2)i=parseInt(a.substr(n,2),16)^r,e+=String.fromCharCode(i);e=document.createTextNode(e),c.parentNode.replaceChild(e,c)}}}catch(u){}}();/* ]]&gt; */&lt;/script&gt;\nFormat settings, CABAC : Yes\nFormat settings, ReFrames : 5 frames\nCodec ID : avc1\nCodec ID/Info : Advanced Video Coding\nDuration : 21mn 54s\nBit rate : 2 860 Kbps\nWidth : 1 280 pixels\nHeight : 720 pixels\nDisplay aspect ratio : 16:9\nFrame rate mode : Variable\nFrame rate : 23.976 fps\nMinimum frame rate : 23.810 fps\nMaximum frame rate : 24.390 fps\nColor space : YUV\nChroma subsampling : 4:2:0\nBit depth : 8 bits\nScan type : Progressive\nBits/(Pixel*Frame) : 0.129\nStream size : 448 MiB (88%)\nLanguage : English\nMatrix coefficients : BT.709\n\nAudio\nID : 2\nFormat : AC-3\nFormat/Info : Audio Coding 3\nMode extension : CM (complete main)\nFormat settings, Endianness : Big\nCodec ID : ac-3\nDuration : 21mn 54s\nBit rate mode : Constant\nBit rate : 384 Kbps\nChannel(s) : 6 channels\nChannel positions : Front: L C R, Side: L R, LFE\nSampling rate : 48.0 KHz\nBit depth : 16 bits\nCompression mode : Lossy\nStream size : 60.2 MiB (12%)\n\n","torrent":{"xt":"urn:btih:6cd48b84b5214a2138ad161ea4024fe733ea7431","amp;dn":"CHVRCHES+at+Coachella+Apr-19-2014+720p","amp;tr":["udp%3A%2F%2Ftracker.openbittorrent.com%3A80","udp%3A%2F%2Fopen.demonii.com%3A1337","udp%3A%2F%2Ftracker.coppersurfer.tk%3A6969","udp%3A%2F%2Fexodus.desync.com%3A6969"],"infoHash":"6cd48b84b5214a2138ad161ea4024fe733ea7431","infoHashBuffer":{"type":"Buffer","data":[108,212,139,132,181,33,74,33,56,173,22,30,164,2,79,231,51,234,116,49]},"announce":[],"urlList":[]}}